<svg width="46" height="46" viewBox="0 0 46 46" fill="none" xmlns="http://www.w3.org/2000/svg">
  <path fill-rule="evenodd" clip-rule="evenodd"
    d="M16.3333 18C17.2538 18 18 17.2538 18 16.3333C18 15.4128 17.2538 14.6666 16.3333 14.6666C15.4129 14.6666 14.6667 15.4128 14.6667 16.3333C14.6667 17.2538 15.4129 18 16.3333 18Z"
    fill="white" fill-opacity="0.12" stroke="#D2D3D6" stroke-width="1.33333" stroke-linecap="round"
    stroke-linejoin="round" />
  <path fill-rule="evenodd" clip-rule="evenodd"
    d="M17.1667 30.5C18.5474 30.5 19.6667 29.3807 19.6667 28C19.6667 26.6193 18.5474 25.5 17.1667 25.5C15.786 25.5 14.6667 26.6193 14.6667 28C14.6667 29.3807 15.786 30.5 17.1667 30.5Z"
    fill="white" fill-opacity="0.12" stroke="#D2D3D6" stroke-width="1.33333" stroke-linecap="round"
    stroke-linejoin="round" />
  <path fill-rule="evenodd" clip-rule="evenodd"
    d="M28.8333 31.3334C30.214 31.3334 31.3333 30.2141 31.3333 28.8334C31.3333 27.4527 30.214 26.3334 28.8333 26.3334C27.4526 26.3334 26.3333 27.4527 26.3333 28.8334C26.3333 30.2141 27.4526 31.3334 28.8333 31.3334Z"
    fill="white" fill-opacity="0.12" stroke="#D2D3D6" stroke-width="1.33333" stroke-linecap="round"
    stroke-linejoin="round" />
  <path fill-rule="evenodd" clip-rule="evenodd"
    d="M22.1667 24.6667C24.0076 24.6667 25.5 23.1743 25.5 21.3333C25.5 19.4924 24.0076 18 22.1667 18C20.3257 18 18.8333 19.4924 18.8333 21.3333C18.8333 23.1743 20.3257 24.6667 22.1667 24.6667Z"
    fill="white" fill-opacity="0.12" stroke="#D2D3D6" stroke-width="1.33333" stroke-linecap="round"
    stroke-linejoin="round" />
  <path fill-rule="evenodd" clip-rule="evenodd"
    d="M27.1667 18C28.0871 18 28.8333 17.2538 28.8333 16.3333C28.8333 15.4128 28.0871 14.6666 27.1667 14.6666C26.2462 14.6666 25.5 15.4128 25.5 16.3333C25.5 17.2538 26.2462 18 27.1667 18Z"
    fill="white" fill-opacity="0.12" stroke="#D2D3D6" stroke-width="1.33333" stroke-linecap="round"
    stroke-linejoin="round" />
  <path d="M17.5833 17.5834L19.25 19.25" stroke="#D2D3D6" stroke-width="1.33333"
    stroke-linecap="round" stroke-linejoin="round" />
  <path d="M25.5 18L24.6667 18.8333" stroke="#D2D3D6" stroke-width="1.33333" stroke-linecap="round"
    stroke-linejoin="round" />
  <path d="M27.1667 26.9584L24.6667 23.8334" stroke="#D2D3D6" stroke-width="1.33333"
    stroke-linecap="round" stroke-linejoin="round" />
  <path d="M18.8333 25.9167L20.5 24.25" stroke="#D2D3D6" stroke-width="1.33333"
    stroke-linecap="round" stroke-linejoin="round" />
</svg>