<svg width="90" height="42" viewBox="0 0 90 42" fill="none" xmlns="http://www.w3.org/2000/svg">
  <path
    d="M0.598 3C0.598 1.67341 1.67341 0.598 3 0.598H87C88.3266 0.598 89.402 1.67341 89.402 3V39C89.402 40.3266 88.3266 41.402 87 41.402H3C1.67341 41.402 0.598 40.3266 0.598 39V3Z"
    stroke="#B7BAC6" stroke-width="1.196" />
  <path
    d="M0.598 3C0.598 1.67341 1.67341 0.598 3 0.598H87C88.3266 0.598 89.402 1.67341 89.402 3V20.402H0.598V3Z"
    fill="white" fill-opacity="0.12" stroke="#B7BAC6" stroke-width="1.196" />
  <path d="M6.425 37.1792L7.98384 38.5488H4.86615L6.425 37.1792Z" fill="#B7BAC6" />
  <path d="M11.8251 38.5488L13.3839 37.1792H10.2662L11.8251 38.5488Z" fill="#B7BAC6" />
  <path d="M18.9768 37.1792L20.3625 38.5488H17.5912L18.9768 37.1792Z" fill="#B7BAC6" />
  <path d="M23.7481 38.5488L25.1337 37.1792H22.3625L23.7481 38.5488Z" fill="#B7BAC6" />
  <path d="M31.4768 37.1792L32.8625 38.5488H30.0912L31.4768 37.1792Z" fill="#B7BAC6" />
  <path d="M36.2481 38.5488L37.6337 37.1792H34.8625L36.2481 38.5488Z" fill="#B7BAC6" />
  <path d="M44.1018 37.1792L45.4875 38.5488H42.7162L44.1018 37.1792Z" fill="#B7BAC6" />
  <path d="M48.8731 38.5488L50.2587 37.1792H47.4875L48.8731 38.5488Z" fill="#B7BAC6" />
  <path d="M56.1018 37.1792L57.4875 38.5488H54.7162L56.1018 37.1792Z" fill="#B7BAC6" />
  <path d="M60.8731 38.5488L62.2587 37.1792H59.4875L60.8731 38.5488Z" fill="#B7BAC6" />
  <path d="M68.6017 37.1792L69.9873 38.5488H67.2161L68.6017 37.1792Z" fill="#B7BAC6" />
  <path d="M73.373 38.5488L74.7586 37.1792H71.9873L73.373 38.5488Z" fill="#B7BAC6" />
  <path d="M4.02226 26.932H14.1388V35.7795H4.02226V26.932Z" fill="#494B51" stroke="#B7BAC6"
    stroke-width="1.196" />
  <line x1="4.55548" y1="31.1441" x2="13.6055" y2="31.1441" stroke="#B7BAC6" stroke-width="1.196" />
  <path d="M16.3348 26.932H26.4513V35.7795H16.3348V26.932Z" fill="#494B51" stroke="#B7BAC6"
    stroke-width="1.196" />
  <line x1="16.868" y1="31.1441" x2="25.918" y2="31.1441" stroke="#B7BAC6" stroke-width="1.196" />
  <path d="M28.6473 26.932H38.7638V35.7795H28.6473V26.932Z" fill="#494B51" stroke="#B7BAC6"
    stroke-width="1.196" />
  <line x1="29.1805" y1="31.1441" x2="38.2305" y2="31.1441" stroke="#B7BAC6" stroke-width="1.196" />
  <path d="M40.9598 26.932H51.0763V35.7795H40.9598V26.932Z" fill="#494B51" stroke="#B7BAC6"
    stroke-width="1.196" />
  <line x1="41.493" y1="31.1441" x2="50.543" y2="31.1441" stroke="#B7BAC6" stroke-width="1.196" />
  <path d="M53.2723 26.932H63.3888V35.7795H53.2723V26.932Z" fill="#494B51" stroke="#B7BAC6"
    stroke-width="1.196" />
  <line x1="53.8055" y1="31.1441" x2="62.8555" y2="31.1441" stroke="#B7BAC6" stroke-width="1.196" />
  <path d="M65.5848 26.932H75.7013V35.7795H65.5848V26.932Z" fill="#494B51" stroke="#B7BAC6"
    stroke-width="1.196" />
  <line x1="66.118" y1="31.1441" x2="75.168" y2="31.1441" stroke="#B7BAC6" stroke-width="1.196" />
  <path
    d="M84.4751 27.5071H86.1271V30.402H78.3231V27.5071H79.9751H80.5731V26.9091V26.598H83.8771V26.9091V27.5071H84.4751Z"
    fill="#494B51" stroke="#B7BAC6" stroke-width="1.196" />
  <path
    d="M84.4751 36.4929H86.1271V33.598H78.3231V36.4929H79.9751H80.5731V37.0909V37.402H83.8771V37.0909V36.4929H84.4751Z"
    fill="#494B51" stroke="#B7BAC6" stroke-width="1.196" />
  <line x1="-5.26771e-08" y1="20.4021" x2="90" y2="20.4021" stroke="#B7BAC6" stroke-width="1.196" />
  <circle cx="4.6451" cy="22.8261" r="0.92" fill="#B7BAC6" />
  <circle cx="8.32509" cy="22.8261" r="0.92" fill="#B7BAC6" />
  <circle cx="12.0051" cy="22.8261" r="0.92" fill="#B7BAC6" />
  <circle cx="15.6851" cy="22.8261" r="0.92" fill="#B7BAC6" />
  <circle cx="19.3651" cy="22.8261" r="0.92" fill="#B7BAC6" />
  <circle cx="23.0451" cy="22.8261" r="0.92" fill="#B7BAC6" />
  <circle cx="26.7251" cy="22.8261" r="0.92" fill="#B7BAC6" />
  <circle cx="30.4051" cy="22.8261" r="0.92" fill="#B7BAC6" />
  <circle cx="34.0851" cy="22.8261" r="0.92" fill="#B7BAC6" />
  <circle cx="37.7651" cy="22.8261" r="0.92" fill="#B7BAC6" />
  <circle cx="41.4451" cy="22.8261" r="0.92" fill="#B7BAC6" />
  <circle cx="45.1251" cy="22.8261" r="0.92" fill="#B7BAC6" />
  <circle cx="48.8051" cy="22.8261" r="0.92" fill="#B7BAC6" />
  <circle cx="52.4851" cy="22.8261" r="0.92" fill="#B7BAC6" />
  <circle cx="56.1651" cy="22.8261" r="0.92" fill="#B7BAC6" />
  <circle cx="59.8451" cy="22.8261" r="0.92" fill="#B7BAC6" />
  <circle cx="63.5251" cy="22.8261" r="0.92" fill="#B7BAC6" />
  <circle cx="67.2051" cy="22.8261" r="0.92" fill="#B7BAC6" />
  <circle cx="70.8851" cy="22.8261" r="0.92" fill="#B7BAC6" />
  <circle cx="74.5651" cy="22.8261" r="0.92" fill="#B7BAC6" />
  <circle cx="78.2451" cy="22.8261" r="0.92" fill="#B7BAC6" />
  <circle cx="81.9251" cy="22.8261" r="0.92" fill="#B7BAC6" />
  <circle cx="85.6051" cy="22.8261" r="0.92" fill="#B7BAC6" />
  <path
    d="M40.2848 7.17114H43.8368C45.8768 7.17114 46.8968 8.03514 46.8968 9.77514C46.8968 11.5271 45.8648 12.4031 43.8128 12.4031H41.5928V15.7391H40.2848V7.17114ZM41.5928 8.28714V11.2871H43.7288C44.3768 11.2871 44.8448 11.1671 45.1448 10.9271C45.4328 10.6871 45.5888 10.3031 45.5888 9.77514C45.5888 9.24714 45.4328 8.86314 45.1328 8.64714C44.8328 8.40714 44.3648 8.28714 43.7288 8.28714H41.5928ZM51.737 7.17114H52.937V12.8351H54.233V13.8791H52.937V15.7391H51.689V13.8791H47.513V12.6431L51.737 7.17114ZM51.653 8.82714L48.581 12.8351H51.689V8.82714H51.653Z"
    fill="#E676FF" />
</svg>