<svg width="16" height="16" viewBox="0 0 16 16" fill="none" xmlns="http://www.w3.org/2000/svg">
<path fill-rule="evenodd" clip-rule="evenodd" d="M2 7.33341C2 6.96522 2.29848 6.66675 2.66667 6.66675H13.3333C13.7015 6.66675 14 6.96522 14 7.33341V14.0001C14 14.3683 13.7015 14.6667 13.3333 14.6667H2.66667C2.29848 14.6667 2 14.3683 2 14.0001V7.33341ZM3.33333 8.00008V13.3334H12.6667V8.00008H3.33333Z" fill="#4170FF"/>
<path fill-rule="evenodd" clip-rule="evenodd" d="M8.00016 9.33325C8.36835 9.33325 8.66683 9.63173 8.66683 9.99992V11.3333C8.66683 11.7014 8.36835 11.9999 8.00016 11.9999C7.63197 11.9999 7.3335 11.7014 7.3335 11.3333V9.99992C7.3335 9.63173 7.63197 9.33325 8.00016 9.33325Z" fill="#4170FF"/>
<path fill-rule="evenodd" clip-rule="evenodd" d="M8.00016 2.66659C6.15921 2.66659 4.66683 4.15897 4.66683 5.99992V7.33325C4.66683 7.70144 4.36835 7.99992 4.00016 7.99992C3.63197 7.99992 3.3335 7.70144 3.3335 7.33325V5.99992C3.3335 3.42259 5.42283 1.33325 8.00016 1.33325C10.5775 1.33325 12.6668 3.42259 12.6668 5.99992V7.33325C12.6668 7.70144 12.3684 7.99992 12.0002 7.99992C11.632 7.99992 11.3335 7.70144 11.3335 7.33325V5.99992C11.3335 4.15897 9.84111 2.66659 8.00016 2.66659Z" fill="#4170FF"/>
</svg>
