<svg width="32" height="32" viewBox="0 0 32 32" fill="none" xmlns="http://www.w3.org/2000/svg">
  <path
    d="M0.5 4C0.5 2.067 2.067 0.5 4 0.5H28C29.933 0.5 31.5 2.067 31.5 4V28C31.5 29.933 29.933 31.5 28 31.5H4C2.067 31.5 0.5 29.933 0.5 28V4Z"
    fill="#202020" />
  <path
    d="M0.5 4C0.5 2.067 2.067 0.5 4 0.5H28C29.933 0.5 31.5 2.067 31.5 4V28C31.5 29.933 29.933 31.5 28 31.5H4C2.067 31.5 0.5 29.933 0.5 28V4Z"
    stroke="#3B3C3F" />
  <path fill-rule="evenodd" clip-rule="evenodd"
    d="M24.3333 23.015C22.2945 20.5263 20.484 19.1141 18.9018 18.7784C17.3196 18.4427 15.8132 18.392 14.3825 18.6262V23.0833L7.66663 15.8105L14.3825 8.91666V13.1529C17.0278 13.1738 19.2765 14.1228 21.1289 16C22.9813 17.8772 24.0494 20.2155 24.3333 23.015Z"
    stroke="#D2D3D6" stroke-width="1.33333" stroke-linejoin="round" />
</svg>