<svg width="90" height="42" viewBox="0 0 90 42" fill="none" xmlns="http://www.w3.org/2000/svg">
  <path
    d="M0.598 3C0.598 1.67341 1.67341 0.598 3 0.598H87C88.3266 0.598 89.402 1.67341 89.402 3V39C89.402 40.3266 88.3266 41.402 87 41.402H3C1.67341 41.402 0.598 40.3266 0.598 39V3Z"
    stroke="#B7BAC6" stroke-width="1.196" />
  <path
    d="M0.598 3C0.598 1.67341 1.67341 0.598 3 0.598H87C88.3266 0.598 89.402 1.67341 89.402 3V20.402H0.598V3Z"
    fill="white" fill-opacity="0.12" stroke="#B7BAC6" stroke-width="1.196" />
  <path d="M4.598 24.598H85.402V37.402H4.598V24.598Z" fill="#494B51" stroke="#B7BAC6"
    stroke-width="1.196" />
  <path
    d="M80.3438 29.0525H82.277V34.402H73.348V29.0525H75.2812H75.8793V28.4545V27.598H79.7458V28.4545V29.0525H80.3438Z"
    stroke="#B7BAC6" stroke-width="1.196" />
  <circle cx="7.72005" cy="27.3983" r="0.92" fill="#B7BAC6" />
  <circle cx="11.4" cy="27.3983" r="0.92" fill="#B7BAC6" />
  <circle cx="15.08" cy="27.3983" r="0.92" fill="#B7BAC6" />
  <circle cx="18.76" cy="27.3983" r="0.92" fill="#B7BAC6" />
  <circle cx="22.44" cy="27.3983" r="0.92" fill="#B7BAC6" />
  <circle cx="26.12" cy="27.3983" r="0.92" fill="#B7BAC6" />
  <circle cx="29.8" cy="27.3983" r="0.92" fill="#B7BAC6" />
  <circle cx="33.4801" cy="27.3983" r="0.92" fill="#B7BAC6" />
  <circle cx="37.16" cy="27.3983" r="0.92" fill="#B7BAC6" />
  <circle cx="40.84" cy="27.3983" r="0.92" fill="#B7BAC6" />
  <circle cx="44.52" cy="27.3983" r="0.92" fill="#B7BAC6" />
  <circle cx="48.2001" cy="27.3983" r="0.92" fill="#B7BAC6" />
  <circle cx="51.8801" cy="27.3983" r="0.92" fill="#B7BAC6" />
  <circle cx="55.56" cy="27.3983" r="0.92" fill="#B7BAC6" />
  <circle cx="59.24" cy="27.3983" r="0.92" fill="#B7BAC6" />
  <circle cx="62.9201" cy="27.3983" r="0.92" fill="#B7BAC6" />
  <circle cx="66.6001" cy="27.3983" r="0.92" fill="#B7BAC6" />
  <circle cx="70.28" cy="27.3983" r="0.92" fill="#B7BAC6" />
  <circle cx="7.72005" cy="31.0783" r="0.92" fill="#B7BAC6" />
  <circle cx="11.4" cy="31.0783" r="0.92" fill="#B7BAC6" />
  <circle cx="15.08" cy="31.0783" r="0.92" fill="#B7BAC6" />
  <circle cx="18.76" cy="31.0783" r="0.92" fill="#B7BAC6" />
  <circle cx="22.44" cy="31.0783" r="0.92" fill="#B7BAC6" />
  <circle cx="26.12" cy="31.0783" r="0.92" fill="#B7BAC6" />
  <circle cx="29.8" cy="31.0783" r="0.92" fill="#B7BAC6" />
  <circle cx="33.4801" cy="31.0783" r="0.92" fill="#B7BAC6" />
  <circle cx="37.16" cy="31.0783" r="0.92" fill="#B7BAC6" />
  <circle cx="40.84" cy="31.0783" r="0.92" fill="#B7BAC6" />
  <circle cx="44.52" cy="31.0783" r="0.92" fill="#B7BAC6" />
  <circle cx="48.2001" cy="31.0783" r="0.92" fill="#B7BAC6" />
  <circle cx="51.8801" cy="31.0783" r="0.92" fill="#B7BAC6" />
  <circle cx="55.56" cy="31.0783" r="0.92" fill="#B7BAC6" />
  <circle cx="59.24" cy="31.0783" r="0.92" fill="#B7BAC6" />
  <circle cx="62.9201" cy="31.0783" r="0.92" fill="#B7BAC6" />
  <circle cx="66.6001" cy="31.0783" r="0.92" fill="#B7BAC6" />
  <circle cx="70.28" cy="31.0783" r="0.92" fill="#B7BAC6" />
  <circle cx="7.72005" cy="34.7583" r="0.92" fill="#B7BAC6" />
  <circle cx="11.4" cy="34.7583" r="0.92" fill="#B7BAC6" />
  <circle cx="15.08" cy="34.7583" r="0.92" fill="#B7BAC6" />
  <circle cx="18.76" cy="34.7583" r="0.92" fill="#B7BAC6" />
  <circle cx="22.44" cy="34.7583" r="0.92" fill="#B7BAC6" />
  <circle cx="26.12" cy="34.7583" r="0.92" fill="#B7BAC6" />
  <circle cx="29.8" cy="34.7583" r="0.92" fill="#B7BAC6" />
  <circle cx="33.4801" cy="34.7583" r="0.92" fill="#B7BAC6" />
  <circle cx="37.16" cy="34.7583" r="0.92" fill="#B7BAC6" />
  <circle cx="40.84" cy="34.7583" r="0.92" fill="#B7BAC6" />
  <circle cx="44.52" cy="34.7583" r="0.92" fill="#B7BAC6" />
  <circle cx="48.2001" cy="34.7583" r="0.92" fill="#B7BAC6" />
  <circle cx="51.8801" cy="34.7583" r="0.92" fill="#B7BAC6" />
  <circle cx="55.56" cy="34.7583" r="0.92" fill="#B7BAC6" />
  <circle cx="59.24" cy="34.7583" r="0.92" fill="#B7BAC6" />
  <circle cx="62.9201" cy="34.7583" r="0.92" fill="#B7BAC6" />
  <circle cx="66.6001" cy="34.7583" r="0.92" fill="#B7BAC6" />
  <circle cx="70.28" cy="34.7583" r="0.92" fill="#B7BAC6" />
  <line x1="-5.26771e-08" y1="20.402" x2="90" y2="20.402" stroke="#B7BAC6" stroke-width="1.196" />
  <path
    d="M28.3666 7.17114H32.2786C33.1186 7.17114 33.7666 7.36314 34.2466 7.77114C34.7026 8.15514 34.9306 8.67114 34.9306 9.33114C34.9306 9.81114 34.8106 10.2191 34.5706 10.5551C34.3306 10.8671 34.0066 11.1071 33.5746 11.2631C34.1386 11.3711 34.5706 11.5991 34.8586 11.9471C35.1466 12.2951 35.2906 12.7631 35.2906 13.3391C35.2906 14.2031 34.9906 14.8271 34.4026 15.2351C33.8986 15.5711 33.1906 15.7391 32.2786 15.7391H28.3666V7.17114ZM29.6746 8.25114V10.8071H31.9306C32.5306 10.8071 32.9626 10.6991 33.2266 10.4951C33.4906 10.2791 33.6226 9.94314 33.6226 9.48714C33.6226 9.05514 33.4906 8.74314 33.2266 8.55114C32.9626 8.34714 32.5306 8.25114 31.9546 8.25114H29.6746ZM29.6746 11.8751V14.6591H32.0986C32.6506 14.6591 33.0826 14.5631 33.3946 14.3951C33.7786 14.1671 33.9826 13.8071 33.9826 13.3151C33.9826 12.8111 33.8266 12.4391 33.5266 12.2111C33.2266 11.9831 32.7586 11.8751 32.1346 11.8751H29.6746ZM36.6049 7.17114H38.1529L41.1409 14.0351H41.1769L44.1529 7.17114H45.7009V15.7391H44.3929V9.61914H44.3449L41.7169 15.7391H40.5889L37.9609 9.61914H37.9129V15.7391H36.6049V7.17114ZM46.6061 7.17114H48.0221L50.4581 14.2751H50.4941L52.9181 7.17114H54.3341L51.2621 15.7391H49.6781L46.6061 7.17114ZM58.1297 7.00314C58.9457 7.00314 59.6297 7.23114 60.1577 7.71114C60.6737 8.19114 60.9377 8.80314 60.9377 9.55914C60.9377 10.3031 60.6497 10.9751 60.0977 11.5871C59.7617 11.9351 59.1737 12.3911 58.3217 12.9671C57.3977 13.5791 56.8457 14.1191 56.6657 14.5871H60.9497V15.7391H55.0457C55.0457 14.8871 55.3217 14.1431 55.8977 13.4951C56.2097 13.1231 56.8577 12.6071 57.8297 11.9351C58.4057 11.5271 58.8137 11.2031 59.0537 10.9511C59.4377 10.5191 59.6417 10.0511 59.6417 9.54714C59.6417 9.06714 59.5097 8.70714 59.2457 8.46714C58.9817 8.22714 58.5857 8.10714 58.0817 8.10714C57.5417 8.10714 57.1337 8.28714 56.8577 8.65914C56.5697 9.01914 56.4257 9.53514 56.4017 10.2311H55.0937C55.1057 9.27114 55.3817 8.50314 55.9217 7.92714C56.4737 7.30314 57.2177 7.00314 58.1297 7.00314Z"
    fill="#F35858" />
</svg>