<svg width="90" height="42" viewBox="0 0 90 42" fill="none" xmlns="http://www.w3.org/2000/svg">
  <path
    d="M0.598 23C0.598 21.6734 1.67341 20.598 3 20.598H87C88.3266 20.598 89.402 21.6734 89.402 23V39C89.402 40.3266 88.3266 41.402 87 41.402H3C1.67341 41.402 0.598 40.3266 0.598 39V23Z"
    stroke="#B7BAC6" stroke-width="1.196" />
  <path d="M4.598 24.598H85.402V37.402H4.598V24.598Z" fill="#494B51" stroke="#B7BAC6"
    stroke-width="1.196" />
  <path
    d="M80.3438 29.0525H82.277V34.402H73.348V29.0525H75.2812H75.8793V28.4545V27.598H79.7458V28.4545V29.0525H80.3438Z"
    stroke="#B7BAC6" stroke-width="1.196" />
  <circle cx="7.72005" cy="27.3983" r="0.92" fill="#B7BAC6" />
  <circle cx="11.4" cy="27.3983" r="0.92" fill="#B7BAC6" />
  <circle cx="15.08" cy="27.3983" r="0.92" fill="#B7BAC6" />
  <circle cx="18.76" cy="27.3983" r="0.92" fill="#B7BAC6" />
  <circle cx="22.44" cy="27.3983" r="0.92" fill="#B7BAC6" />
  <circle cx="26.12" cy="27.3983" r="0.92" fill="#B7BAC6" />
  <circle cx="29.8" cy="27.3983" r="0.92" fill="#B7BAC6" />
  <circle cx="33.4801" cy="27.3983" r="0.92" fill="#B7BAC6" />
  <circle cx="37.16" cy="27.3983" r="0.92" fill="#B7BAC6" />
  <circle cx="40.84" cy="27.3983" r="0.92" fill="#B7BAC6" />
  <circle cx="44.52" cy="27.3983" r="0.92" fill="#B7BAC6" />
  <circle cx="48.2" cy="27.3983" r="0.92" fill="#B7BAC6" />
  <circle cx="51.88" cy="27.3983" r="0.92" fill="#B7BAC6" />
  <circle cx="55.5601" cy="27.3983" r="0.92" fill="#B7BAC6" />
  <circle cx="59.24" cy="27.3983" r="0.92" fill="#B7BAC6" />
  <circle cx="62.9201" cy="27.3983" r="0.92" fill="#B7BAC6" />
  <circle cx="66.6001" cy="27.3983" r="0.92" fill="#B7BAC6" />
  <circle cx="70.28" cy="27.3983" r="0.92" fill="#B7BAC6" />
  <circle cx="7.72005" cy="31.0783" r="0.92" fill="#B7BAC6" />
  <circle cx="11.4" cy="31.0783" r="0.92" fill="#B7BAC6" />
  <circle cx="15.08" cy="31.0783" r="0.92" fill="#B7BAC6" />
  <circle cx="18.76" cy="31.0783" r="0.92" fill="#B7BAC6" />
  <circle cx="22.44" cy="31.0783" r="0.92" fill="#B7BAC6" />
  <circle cx="26.12" cy="31.0783" r="0.92" fill="#B7BAC6" />
  <circle cx="29.8" cy="31.0783" r="0.92" fill="#B7BAC6" />
  <circle cx="33.4801" cy="31.0783" r="0.92" fill="#B7BAC6" />
  <circle cx="37.16" cy="31.0783" r="0.92" fill="#B7BAC6" />
  <circle cx="40.84" cy="31.0783" r="0.92" fill="#B7BAC6" />
  <circle cx="44.52" cy="31.0783" r="0.92" fill="#B7BAC6" />
  <circle cx="48.2" cy="31.0783" r="0.92" fill="#B7BAC6" />
  <circle cx="51.88" cy="31.0783" r="0.92" fill="#B7BAC6" />
  <circle cx="55.5601" cy="31.0783" r="0.92" fill="#B7BAC6" />
  <circle cx="59.24" cy="31.0783" r="0.92" fill="#B7BAC6" />
  <circle cx="62.9201" cy="31.0783" r="0.92" fill="#B7BAC6" />
  <circle cx="66.6001" cy="31.0783" r="0.92" fill="#B7BAC6" />
  <circle cx="70.28" cy="31.0783" r="0.92" fill="#B7BAC6" />
  <circle cx="7.72005" cy="34.7583" r="0.92" fill="#B7BAC6" />
  <circle cx="11.4" cy="34.7583" r="0.92" fill="#B7BAC6" />
  <circle cx="15.08" cy="34.7583" r="0.92" fill="#B7BAC6" />
  <circle cx="18.76" cy="34.7583" r="0.92" fill="#B7BAC6" />
  <circle cx="22.44" cy="34.7583" r="0.92" fill="#B7BAC6" />
  <circle cx="26.12" cy="34.7583" r="0.92" fill="#B7BAC6" />
  <circle cx="29.8" cy="34.7583" r="0.92" fill="#B7BAC6" />
  <circle cx="33.4801" cy="34.7583" r="0.92" fill="#B7BAC6" />
  <circle cx="37.16" cy="34.7583" r="0.92" fill="#B7BAC6" />
  <circle cx="40.84" cy="34.7583" r="0.92" fill="#B7BAC6" />
  <circle cx="44.52" cy="34.7583" r="0.92" fill="#B7BAC6" />
  <circle cx="48.2" cy="34.7583" r="0.92" fill="#B7BAC6" />
  <circle cx="51.88" cy="34.7583" r="0.92" fill="#B7BAC6" />
  <circle cx="55.5601" cy="34.7583" r="0.92" fill="#B7BAC6" />
  <circle cx="59.24" cy="34.7583" r="0.92" fill="#B7BAC6" />
  <circle cx="62.9201" cy="34.7583" r="0.92" fill="#B7BAC6" />
  <circle cx="66.6001" cy="34.7583" r="0.92" fill="#B7BAC6" />
  <circle cx="70.28" cy="34.7583" r="0.92" fill="#B7BAC6" />
  <path
    d="M32.4228 5.432H38.1828V6.488L35.1468 14H33.7548L36.8628 6.62H32.4228V5.432ZM41.4442 5.432H42.4282V14H41.1202V7.004C40.6042 7.496 39.9442 7.856 39.1522 8.084V6.788C39.5362 6.692 39.9322 6.524 40.3642 6.284C40.7962 6.02 41.1562 5.744 41.4442 5.432ZM47.2426 5.264C48.1066 5.264 48.7906 5.468 49.3186 5.888C49.8226 6.308 50.0866 6.884 50.0866 7.616C50.0866 8.552 49.6066 9.188 48.6706 9.5C49.1746 9.656 49.5586 9.896 49.8226 10.208C50.1106 10.532 50.2546 10.952 50.2546 11.456C50.2546 12.248 49.9786 12.896 49.4386 13.4C48.8626 13.904 48.1066 14.168 47.1946 14.168C46.3186 14.168 45.6106 13.94 45.0826 13.496C44.4826 12.992 44.1466 12.26 44.0746 11.3H45.3946C45.4186 11.876 45.5986 12.32 45.9586 12.632C46.2706 12.92 46.6786 13.064 47.1826 13.064C47.7346 13.064 48.1786 12.896 48.5146 12.584C48.8026 12.296 48.9586 11.948 48.9586 11.516C48.9586 11.012 48.8026 10.64 48.4906 10.4C48.2026 10.16 47.7706 10.04 47.2066 10.04H46.5826V9.056H47.1946C47.7226 9.056 48.1186 8.936 48.3826 8.708C48.6466 8.48 48.7906 8.144 48.7906 7.712C48.7906 7.28 48.6586 6.956 48.4186 6.728C48.1546 6.488 47.7586 6.38 47.2546 6.38C46.7386 6.38 46.3306 6.512 46.0426 6.776C45.7546 7.04 45.5746 7.436 45.5266 7.964H44.2426C44.3146 7.112 44.6266 6.452 45.1906 5.972C45.7186 5.492 46.4026 5.264 47.2426 5.264ZM54.4859 5.264C55.3019 5.264 55.9859 5.492 56.5139 5.972C57.0299 6.452 57.2939 7.064 57.2939 7.82C57.2939 8.564 57.0059 9.236 56.4539 9.848C56.1179 10.196 55.5299 10.652 54.6779 11.228C53.7539 11.84 53.2019 12.38 53.0219 12.848H57.3059V14H51.4019C51.4019 13.148 51.6779 12.404 52.2539 11.756C52.5659 11.384 53.2139 10.868 54.1859 10.196C54.7619 9.788 55.1699 9.464 55.4099 9.212C55.7939 8.78 55.9979 8.312 55.9979 7.808C55.9979 7.328 55.8659 6.968 55.6019 6.728C55.3379 6.488 54.9419 6.368 54.4379 6.368C53.8979 6.368 53.4899 6.548 53.2139 6.92C52.9259 7.28 52.7819 7.796 52.7579 8.492H51.4499C51.4619 7.532 51.7379 6.764 52.2779 6.188C52.8299 5.564 53.5739 5.264 54.4859 5.264Z"
    fill="#47DAFF" />
</svg>