<svg width="90" height="42" viewBox="0 0 90 42" fill="none" xmlns="http://www.w3.org/2000/svg">
  <path
    d="M0.598 3C0.598 1.67341 1.67341 0.598 3 0.598H87C88.3266 0.598 89.402 1.67341 89.402 3V39C89.402 40.3266 88.3266 41.402 87 41.402H3C1.67341 41.402 0.598 40.3266 0.598 39V3Z"
    stroke="#B7BAC6" stroke-width="1.196" />
  <path
    d="M0.598 3C0.598 1.67341 1.67341 0.598 3 0.598H87C88.3266 0.598 89.402 1.67341 89.402 3V20.402H0.598V3Z"
    fill="white" fill-opacity="0.12" stroke="#B7BAC6" stroke-width="1.196" />
  <path d="M4.598 24.598H85.402V37.402H4.598V24.598Z" fill="#494B51" stroke="#B7BAC6"
    stroke-width="1.196" />
  <path
    d="M80.3438 29.0525H82.277V34.402H73.348V29.0525H75.2812H75.8793V28.4545V27.598H79.7458V28.4545V29.0525H80.3438Z"
    stroke="#B7BAC6" stroke-width="1.196" />
  <circle cx="7.72005" cy="27.3983" r="0.92" fill="#B7BAC6" />
  <circle cx="11.4" cy="27.3983" r="0.92" fill="#B7BAC6" />
  <circle cx="15.08" cy="27.3983" r="0.92" fill="#B7BAC6" />
  <circle cx="18.76" cy="27.3983" r="0.92" fill="#B7BAC6" />
  <circle cx="22.44" cy="27.3983" r="0.92" fill="#B7BAC6" />
  <circle cx="26.12" cy="27.3983" r="0.92" fill="#B7BAC6" />
  <circle cx="29.8" cy="27.3983" r="0.92" fill="#B7BAC6" />
  <circle cx="33.4801" cy="27.3983" r="0.92" fill="#B7BAC6" />
  <circle cx="37.16" cy="27.3983" r="0.92" fill="#B7BAC6" />
  <circle cx="40.84" cy="27.3983" r="0.92" fill="#B7BAC6" />
  <circle cx="44.52" cy="27.3983" r="0.92" fill="#B7BAC6" />
  <circle cx="48.2001" cy="27.3983" r="0.92" fill="#B7BAC6" />
  <circle cx="51.8801" cy="27.3983" r="0.92" fill="#B7BAC6" />
  <circle cx="55.56" cy="27.3983" r="0.92" fill="#B7BAC6" />
  <circle cx="59.24" cy="27.3983" r="0.92" fill="#B7BAC6" />
  <circle cx="62.9201" cy="27.3983" r="0.92" fill="#B7BAC6" />
  <circle cx="66.6001" cy="27.3983" r="0.92" fill="#B7BAC6" />
  <circle cx="70.28" cy="27.3983" r="0.92" fill="#B7BAC6" />
  <circle cx="7.72005" cy="31.0783" r="0.92" fill="#B7BAC6" />
  <circle cx="11.4" cy="31.0783" r="0.92" fill="#B7BAC6" />
  <circle cx="15.08" cy="31.0783" r="0.92" fill="#B7BAC6" />
  <circle cx="18.76" cy="31.0783" r="0.92" fill="#B7BAC6" />
  <circle cx="22.44" cy="31.0783" r="0.92" fill="#B7BAC6" />
  <circle cx="26.12" cy="31.0783" r="0.92" fill="#B7BAC6" />
  <circle cx="29.8" cy="31.0783" r="0.92" fill="#B7BAC6" />
  <circle cx="33.4801" cy="31.0783" r="0.92" fill="#B7BAC6" />
  <circle cx="37.16" cy="31.0783" r="0.92" fill="#B7BAC6" />
  <circle cx="40.84" cy="31.0783" r="0.92" fill="#B7BAC6" />
  <circle cx="44.52" cy="31.0783" r="0.92" fill="#B7BAC6" />
  <circle cx="48.2001" cy="31.0783" r="0.92" fill="#B7BAC6" />
  <circle cx="51.8801" cy="31.0783" r="0.92" fill="#B7BAC6" />
  <circle cx="55.56" cy="31.0783" r="0.92" fill="#B7BAC6" />
  <circle cx="59.24" cy="31.0783" r="0.92" fill="#B7BAC6" />
  <circle cx="62.9201" cy="31.0783" r="0.92" fill="#B7BAC6" />
  <circle cx="66.6001" cy="31.0783" r="0.92" fill="#B7BAC6" />
  <circle cx="70.28" cy="31.0783" r="0.92" fill="#B7BAC6" />
  <circle cx="7.72005" cy="34.7583" r="0.92" fill="#B7BAC6" />
  <circle cx="11.4" cy="34.7583" r="0.92" fill="#B7BAC6" />
  <circle cx="15.08" cy="34.7583" r="0.92" fill="#B7BAC6" />
  <circle cx="18.76" cy="34.7583" r="0.92" fill="#B7BAC6" />
  <circle cx="22.44" cy="34.7583" r="0.92" fill="#B7BAC6" />
  <circle cx="26.12" cy="34.7583" r="0.92" fill="#B7BAC6" />
  <circle cx="29.8" cy="34.7583" r="0.92" fill="#B7BAC6" />
  <circle cx="33.4801" cy="34.7583" r="0.92" fill="#B7BAC6" />
  <circle cx="37.16" cy="34.7583" r="0.92" fill="#B7BAC6" />
  <circle cx="40.84" cy="34.7583" r="0.92" fill="#B7BAC6" />
  <circle cx="44.52" cy="34.7583" r="0.92" fill="#B7BAC6" />
  <circle cx="48.2001" cy="34.7583" r="0.92" fill="#B7BAC6" />
  <circle cx="51.8801" cy="34.7583" r="0.92" fill="#B7BAC6" />
  <circle cx="55.56" cy="34.7583" r="0.92" fill="#B7BAC6" />
  <circle cx="59.24" cy="34.7583" r="0.92" fill="#B7BAC6" />
  <circle cx="62.9201" cy="34.7583" r="0.92" fill="#B7BAC6" />
  <circle cx="66.6001" cy="34.7583" r="0.92" fill="#B7BAC6" />
  <circle cx="70.28" cy="34.7583" r="0.92" fill="#B7BAC6" />
  <line x1="-5.26771e-08" y1="20.4021" x2="90" y2="20.4021" stroke="#B7BAC6" stroke-width="1.196" />
  <path
    d="M29.4401 7.17114H30.8561L33.2921 14.2751H33.3281L35.7521 7.17114H37.1681L34.0961 15.7391H32.5121L29.4401 7.17114ZM38.0717 7.17114H41.6237C43.6637 7.17114 44.6837 8.03514 44.6837 9.77514C44.6837 11.5271 43.6517 12.4031 41.5997 12.4031H39.3797V15.7391H38.0717V7.17114ZM39.3797 8.28714V11.2871H41.5157C42.1637 11.2871 42.6317 11.1671 42.9317 10.9271C43.2197 10.6871 43.3757 10.3031 43.3757 9.77514C43.3757 9.24714 43.2197 8.86314 42.9197 8.64714C42.6197 8.40714 42.1517 8.28714 41.5157 8.28714H39.3797ZM45.8998 7.17114H47.2198L51.5998 13.5431H51.6478V7.17114H52.9558V15.7391H51.6838L47.2558 9.29514H47.2078V15.7391H45.8998V7.17114ZM54.642 7.17114H60.798V8.28714H55.95V10.7831H60.51V11.8991H55.95V14.6231H61.002V15.7391H54.642V7.17114Z"
    fill="#51FA84" />
</svg>