<svg width="90" height="42" viewBox="0 0 90 42" fill="none" xmlns="http://www.w3.org/2000/svg">
  <path
    d="M0.598 3C0.598 1.67341 1.67341 0.598 3 0.598H87C88.3266 0.598 89.402 1.67341 89.402 3V39C89.402 40.3266 88.3266 41.402 87 41.402H3C1.67341 41.402 0.598 40.3266 0.598 39V3Z"
    stroke="#B7BAC6" stroke-width="1.196" />
  <path
    d="M0.598 3C0.598 1.67341 1.67341 0.598 3 0.598H87C88.3266 0.598 89.402 1.67341 89.402 3V20.402H0.598V3Z"
    fill="white" fill-opacity="0.12" stroke="#B7BAC6" stroke-width="1.196" />
  <path d="M4.598 24.598H85.402V37.402H4.598V24.598Z" fill="#494B51" stroke="#B7BAC6"
    stroke-width="1.196" />
  <path
    d="M80.3438 29.0525H82.277V34.402H73.348V29.0525H75.2812H75.8793V28.4545V27.598H79.7458V28.4545V29.0525H80.3438Z"
    stroke="#B7BAC6" stroke-width="1.196" />
  <circle cx="7.72005" cy="27.3983" r="0.92" fill="#B7BAC6" />
  <circle cx="11.4" cy="27.3983" r="0.92" fill="#B7BAC6" />
  <circle cx="15.08" cy="27.3983" r="0.92" fill="#B7BAC6" />
  <circle cx="18.76" cy="27.3983" r="0.92" fill="#B7BAC6" />
  <circle cx="22.44" cy="27.3983" r="0.92" fill="#B7BAC6" />
  <circle cx="26.12" cy="27.3983" r="0.92" fill="#B7BAC6" />
  <circle cx="29.8" cy="27.3983" r="0.92" fill="#B7BAC6" />
  <circle cx="33.4801" cy="27.3983" r="0.92" fill="#B7BAC6" />
  <circle cx="37.16" cy="27.3983" r="0.92" fill="#B7BAC6" />
  <circle cx="40.84" cy="27.3983" r="0.92" fill="#B7BAC6" />
  <circle cx="44.52" cy="27.3983" r="0.92" fill="#B7BAC6" />
  <circle cx="48.2001" cy="27.3983" r="0.92" fill="#B7BAC6" />
  <circle cx="51.8801" cy="27.3983" r="0.92" fill="#B7BAC6" />
  <circle cx="55.56" cy="27.3983" r="0.92" fill="#B7BAC6" />
  <circle cx="59.24" cy="27.3983" r="0.92" fill="#B7BAC6" />
  <circle cx="62.9201" cy="27.3983" r="0.92" fill="#B7BAC6" />
  <circle cx="66.6001" cy="27.3983" r="0.92" fill="#B7BAC6" />
  <circle cx="70.28" cy="27.3983" r="0.92" fill="#B7BAC6" />
  <circle cx="7.72005" cy="31.0783" r="0.92" fill="#B7BAC6" />
  <circle cx="11.4" cy="31.0783" r="0.92" fill="#B7BAC6" />
  <circle cx="15.08" cy="31.0783" r="0.92" fill="#B7BAC6" />
  <circle cx="18.76" cy="31.0783" r="0.92" fill="#B7BAC6" />
  <circle cx="22.44" cy="31.0783" r="0.92" fill="#B7BAC6" />
  <circle cx="26.12" cy="31.0783" r="0.92" fill="#B7BAC6" />
  <circle cx="29.8" cy="31.0783" r="0.92" fill="#B7BAC6" />
  <circle cx="33.4801" cy="31.0783" r="0.92" fill="#B7BAC6" />
  <circle cx="37.16" cy="31.0783" r="0.92" fill="#B7BAC6" />
  <circle cx="40.84" cy="31.0783" r="0.92" fill="#B7BAC6" />
  <circle cx="44.52" cy="31.0783" r="0.92" fill="#B7BAC6" />
  <circle cx="48.2001" cy="31.0783" r="0.92" fill="#B7BAC6" />
  <circle cx="51.8801" cy="31.0783" r="0.92" fill="#B7BAC6" />
  <circle cx="55.56" cy="31.0783" r="0.92" fill="#B7BAC6" />
  <circle cx="59.24" cy="31.0783" r="0.92" fill="#B7BAC6" />
  <circle cx="62.9201" cy="31.0783" r="0.92" fill="#B7BAC6" />
  <circle cx="66.6001" cy="31.0783" r="0.92" fill="#B7BAC6" />
  <circle cx="70.28" cy="31.0783" r="0.92" fill="#B7BAC6" />
  <circle cx="7.72005" cy="34.7583" r="0.92" fill="#B7BAC6" />
  <circle cx="11.4" cy="34.7583" r="0.92" fill="#B7BAC6" />
  <circle cx="15.08" cy="34.7583" r="0.92" fill="#B7BAC6" />
  <circle cx="18.76" cy="34.7583" r="0.92" fill="#B7BAC6" />
  <circle cx="22.44" cy="34.7583" r="0.92" fill="#B7BAC6" />
  <circle cx="26.12" cy="34.7583" r="0.92" fill="#B7BAC6" />
  <circle cx="29.8" cy="34.7583" r="0.92" fill="#B7BAC6" />
  <circle cx="33.4801" cy="34.7583" r="0.92" fill="#B7BAC6" />
  <circle cx="37.16" cy="34.7583" r="0.92" fill="#B7BAC6" />
  <circle cx="40.84" cy="34.7583" r="0.92" fill="#B7BAC6" />
  <circle cx="44.52" cy="34.7583" r="0.92" fill="#B7BAC6" />
  <circle cx="48.2001" cy="34.7583" r="0.92" fill="#B7BAC6" />
  <circle cx="51.8801" cy="34.7583" r="0.92" fill="#B7BAC6" />
  <circle cx="55.56" cy="34.7583" r="0.92" fill="#B7BAC6" />
  <circle cx="59.24" cy="34.7583" r="0.92" fill="#B7BAC6" />
  <circle cx="62.9201" cy="34.7583" r="0.92" fill="#B7BAC6" />
  <circle cx="66.6001" cy="34.7583" r="0.92" fill="#B7BAC6" />
  <circle cx="70.28" cy="34.7583" r="0.92" fill="#B7BAC6" />
  <line x1="-5.26771e-08" y1="20.402" x2="90" y2="20.402" stroke="#B7BAC6" stroke-width="1.196" />
  <path
    d="M35.3578 7.00314C36.2698 7.00314 36.9898 7.24314 37.5298 7.72314C38.0098 8.15514 38.2498 8.69514 38.2498 9.33114C38.2498 9.77514 38.1538 10.1471 37.9618 10.4471C37.7458 10.7711 37.4218 11.0111 36.9898 11.1791V11.2151C37.3978 11.3111 37.7578 11.5511 38.0458 11.9351C38.3818 12.3431 38.5498 12.8111 38.5498 13.3511C38.5498 14.1071 38.2738 14.7191 37.7218 15.1991C37.1578 15.6671 36.3658 15.9071 35.3578 15.9071C34.3378 15.9071 33.5458 15.6671 32.9938 15.1991C32.4418 14.7191 32.1658 14.1071 32.1658 13.3511C32.1658 12.8111 32.3338 12.3431 32.6698 11.9351C32.9578 11.5511 33.3058 11.3111 33.7258 11.2151V11.1791C33.2938 11.0111 32.9698 10.7711 32.7538 10.4471C32.5618 10.1471 32.4658 9.77514 32.4658 9.33114C32.4658 8.69514 32.7058 8.15514 33.1858 7.72314C33.7138 7.24314 34.4458 7.00314 35.3578 7.00314ZM35.3578 8.04714C34.8298 8.04714 34.4098 8.17914 34.0978 8.46714C33.8218 8.70714 33.6898 9.01914 33.6898 9.37914C33.6898 9.78714 33.7978 10.1111 34.0258 10.3511C34.3018 10.6391 34.7458 10.7831 35.3578 10.7831C35.9578 10.7831 36.4018 10.6391 36.6898 10.3511C36.9058 10.1111 37.0258 9.78714 37.0258 9.37914C37.0258 9.01914 36.8818 8.70714 36.6178 8.46714C36.3058 8.17914 35.8858 8.04714 35.3578 8.04714ZM35.3578 11.7551C34.7338 11.7551 34.2538 11.8991 33.9418 12.2111C33.6178 12.4991 33.4618 12.8711 33.4618 13.3511C33.4618 13.7951 33.6178 14.1551 33.9538 14.4311C34.2778 14.7071 34.7458 14.8511 35.3578 14.8511C35.9578 14.8511 36.4378 14.7071 36.7858 14.4311C37.0978 14.1551 37.2538 13.7951 37.2538 13.3511C37.2538 12.8711 37.0978 12.4991 36.7858 12.2231C36.4498 11.9111 35.9818 11.7551 35.3578 11.7551ZM41.7371 7.17114H42.7211V15.7391H41.4131V8.74314C40.8971 9.23514 40.2371 9.59514 39.4451 9.82314V8.52714C39.8291 8.43114 40.2251 8.26314 40.6571 8.02314C41.0891 7.75914 41.4491 7.48314 41.7371 7.17114ZM47.4516 7.00314C48.3636 7.00314 49.0836 7.24314 49.6236 7.72314C50.1036 8.15514 50.3436 8.69514 50.3436 9.33114C50.3436 9.77514 50.2476 10.1471 50.0556 10.4471C49.8396 10.7711 49.5156 11.0111 49.0836 11.1791V11.2151C49.4916 11.3111 49.8516 11.5511 50.1396 11.9351C50.4756 12.3431 50.6436 12.8111 50.6436 13.3511C50.6436 14.1071 50.3676 14.7191 49.8156 15.1991C49.2516 15.6671 48.4596 15.9071 47.4516 15.9071C46.4316 15.9071 45.6396 15.6671 45.0876 15.1991C44.5356 14.7191 44.2596 14.1071 44.2596 13.3511C44.2596 12.8111 44.4276 12.3431 44.7636 11.9351C45.0516 11.5511 45.3996 11.3111 45.8196 11.2151V11.1791C45.3876 11.0111 45.0636 10.7711 44.8476 10.4471C44.6556 10.1471 44.5596 9.77514 44.5596 9.33114C44.5596 8.69514 44.7996 8.15514 45.2796 7.72314C45.8076 7.24314 46.5396 7.00314 47.4516 7.00314ZM47.4516 8.04714C46.9236 8.04714 46.5036 8.17914 46.1916 8.46714C45.9156 8.70714 45.7836 9.01914 45.7836 9.37914C45.7836 9.78714 45.8916 10.1111 46.1196 10.3511C46.3956 10.6391 46.8396 10.7831 47.4516 10.7831C48.0516 10.7831 48.4956 10.6391 48.7836 10.3511C48.9996 10.1111 49.1196 9.78714 49.1196 9.37914C49.1196 9.01914 48.9756 8.70714 48.7116 8.46714C48.3996 8.17914 47.9796 8.04714 47.4516 8.04714ZM47.4516 11.7551C46.8276 11.7551 46.3476 11.8991 46.0356 12.2111C45.7116 12.4991 45.5556 12.8711 45.5556 13.3511C45.5556 13.7951 45.7116 14.1551 46.0476 14.4311C46.3716 14.7071 46.8396 14.8511 47.4516 14.8511C48.0516 14.8511 48.5316 14.7071 48.8796 14.4311C49.1916 14.1551 49.3476 13.7951 49.3476 13.3511C49.3476 12.8711 49.1916 12.4991 48.8796 12.2231C48.5436 11.9111 48.0756 11.7551 47.4516 11.7551ZM54.6469 7.00314C55.6549 7.00314 56.4349 7.42314 56.9869 8.27514C57.4909 9.06714 57.7429 10.1231 57.7429 11.4551C57.7429 12.7751 57.4909 13.8431 56.9869 14.6351C56.4349 15.4751 55.6549 15.9071 54.6469 15.9071C53.6389 15.9071 52.8589 15.4751 52.3069 14.6351C51.8029 13.8431 51.5509 12.7871 51.5509 11.4551C51.5509 10.1111 51.8029 9.05514 52.3069 8.27514C52.8589 7.42314 53.6389 7.00314 54.6469 7.00314ZM54.6469 8.10714C53.9389 8.10714 53.4469 8.49114 53.1589 9.27114C52.9429 9.79914 52.8469 10.5311 52.8469 11.4551C52.8469 12.3671 52.9429 13.0991 53.1589 13.6391C53.4469 14.4071 53.9389 14.8031 54.6469 14.8031C55.3429 14.8031 55.8469 14.4071 56.1349 13.6391C56.3389 13.0991 56.4469 12.3671 56.4469 11.4551C56.4469 10.5311 56.3389 9.79914 56.1349 9.27114C55.8469 8.49114 55.3429 8.10714 54.6469 8.10714Z"
    fill="#FFC757" />
</svg>