<svg width="16" height="16" viewBox="0 0 16 16" fill="none" xmlns="http://www.w3.org/2000/svg">
<path fill-rule="evenodd" clip-rule="evenodd" d="M7.99998 10C8.36817 10 8.66665 9.70152 8.66665 9.33333V2.66667C8.66665 2.29848 8.36817 2 7.99998 2C7.63179 2 7.33331 2.29848 7.33331 2.66667V9.33333C7.33331 9.70152 7.63179 10 7.99998 10Z" fill="#4170FF"/>
<path fill-rule="evenodd" clip-rule="evenodd" d="M5.19526 5.47136C5.45561 5.73171 5.87772 5.73171 6.13807 5.47136L8 3.60944L9.86193 5.47136C10.1223 5.73171 10.5444 5.73171 10.8047 5.47136C11.0651 5.21101 11.0651 4.7889 10.8047 4.52855L8.4714 2.19522C8.21106 1.93487 7.78895 1.93487 7.5286 2.19522L5.19526 4.52855C4.93491 4.7889 4.93491 5.21101 5.19526 5.47136Z" fill="#4170FF"/>
<path fill-rule="evenodd" clip-rule="evenodd" d="M1.99998 8C2.36817 8 2.66665 8.29848 2.66665 8.66667V12.6667H13.3333V8.66667C13.3333 8.29848 13.6318 8 14 8C14.3682 8 14.6666 8.29848 14.6666 8.66667V13.3333C14.6666 13.7015 14.3682 14 14 14H1.99998C1.63179 14 1.33331 13.7015 1.33331 13.3333V8.66667C1.33331 8.29848 1.63179 8 1.99998 8Z" fill="#4170FF"/>
</svg>
