<svg width="32" height="32" viewBox="0 0 32 32" fill="none" xmlns="http://www.w3.org/2000/svg">
  <path
    d="M0.5 4C0.5 2.067 2.067 0.5 4 0.5H28C29.933 0.5 31.5 2.067 31.5 4V28C31.5 29.933 29.933 31.5 28 31.5H4C2.067 31.5 0.5 29.933 0.5 28V4Z"
    fill="#202020" />
  <path
    d="M0.5 4C0.5 2.067 2.067 0.5 4 0.5H28C29.933 0.5 31.5 2.067 31.5 4V28C31.5 29.933 29.933 31.5 28 31.5H4C2.067 31.5 0.5 29.933 0.5 28V4Z"
    stroke="#3B3C3F" />
  <path d="M24.3333 18.0833H7.66663V23.5H24.3333V18.0833Z" stroke="#D2D3D6" stroke-width="1.33333"
    stroke-linejoin="round" />
  <path
    d="M20.7917 21.8333C21.367 21.8333 21.8333 21.367 21.8333 20.7917C21.8333 20.2164 21.367 19.75 20.7917 19.75C20.2164 19.75 19.75 20.2164 19.75 20.7917C19.75 21.367 20.2164 21.8333 20.7917 21.8333Z"
    fill="#D2D3D6" />
  <path d="M7.66663 18.0832L9.76595 8.08292H22.2585L24.3333 18.0832" stroke="#D2D3D6"
    stroke-width="1.33333" stroke-linejoin="round" />
  <path
    d="M13.9192 12.6775C13.0265 12.6775 12.25 13.2968 12.25 14.1303C12.25 15.1666 13.1228 15.5833 14.2072 15.5833C14.3932 15.5833 14.5653 15.5833 14.7403 15.5833"
    stroke="#D2D3D6" stroke-width="1.33333" stroke-linecap="round" stroke-linejoin="round" />
  <path
    d="M18.0863 12.6775C18.96 12.6775 19.75 13.0831 19.75 14.1303C19.75 15.1666 18.8709 15.5833 17.7865 15.5833C17.6005 15.5833 17.4172 15.5833 17.2446 15.5833"
    stroke="#D2D3D6" stroke-width="1.33333" stroke-linecap="round" stroke-linejoin="round" />
  <path
    d="M18.0862 12.6775C18.0862 11.4343 17.2596 10.5833 15.9999 10.5833C14.7402 10.5833 13.9191 11.4136 13.9191 12.6775"
    stroke="#D2D3D6" stroke-width="1.33333" stroke-linecap="round" stroke-linejoin="round" />
  <path d="M14.3334 15.5833H17.6667" stroke="#D2D3D6" stroke-width="1.33333" />
</svg>