<svg width="10" height="10" viewBox="0 0 10 10" fill="none" xmlns="http://www.w3.org/2000/svg">
<path fill-rule="evenodd" clip-rule="evenodd" d="M8.54168 7.4723C8.82882 7.77442 8.81756 8.25386 8.51353 8.54097C8.22076 8.81963 7.76284 8.81963 7.47195 8.54097L5.00031 6.06961L2.52866 8.54097C2.22463 8.83089 1.747 8.81682 1.45799 8.51376C1.18117 8.2229 1.18117 7.76503 1.45799 7.4723L3.92963 5L1.45799 2.52864C1.16991 2.22465 1.18305 1.74614 1.4852 1.45716C1.77797 1.18131 2.23589 1.18131 2.52866 1.45716L5.00031 3.93133L7.47195 1.45716C7.7741 1.17005 8.25454 1.18319 8.54168 1.4853C8.81944 1.77804 8.81944 2.23591 8.54168 2.52864L6.07004 5L8.54168 7.4723Z" fill="white" fill-opacity="0.8"/>
</svg>
