<svg xmlns="http://www.w3.org/2000/svg" width="812" height="564" viewBox="0 0 812 564" fill="none">
  <g filter="url(#filter0_ii_244_38523)">
    <path fill-rule="evenodd" clip-rule="evenodd" d="M625.329 249.676H623.02L618.403 258.852L605.705 263.44L603.396 265.734V271.469L597.624 277.205L594.161 276.058L591.852 280.646L586.08 274.911L583.772 277.205V281.793L582.617 280.646L580.309 285.234L583.772 289.822L584.926 288.675L583.772 290.969L593.007 294.41H598.778L599.933 298.999L602.241 300.146H599.933L597.624 303.587L598.778 307.028L602.241 308.175L603.396 310.469L608.013 309.322L610.322 307.028L609.168 305.881H611.476L614.94 302.44V300.146L621.866 297.852L625.329 298.999L626.483 302.44L629.946 301.293L632.255 304.734L639.181 302.44L641.49 304.734H647.262L643.799 311.616H646.107L642.644 315.057L638.027 312.763L632.255 316.204L631.101 315.057L628.792 317.351L623.02 318.498L625.329 319.645L620.711 321.939V326.528L617.248 327.675L614.94 324.234L613.785 327.675H616.094L601.087 344.88V347.174L605.705 348.322V350.616L616.094 355.204L620.711 368.968L623.02 371.262L624.174 380.439L631.101 385.027V387.321L638.027 395.35L636.872 399.939L631.101 397.645L629.946 398.792L635.718 403.38L638.027 406.821V411.409L640.335 412.556L633.409 409.115L626.483 412.556L627.637 415.997L634.564 421.733L640.335 422.88L635.718 426.321L638.027 428.615V435.497H633.409L635.718 438.938H633.409L634.564 440.085L632.255 442.379L634.564 445.82L632.255 448.115L631.101 446.967L627.637 451.556L626.483 449.262L625.329 450.409V452.703H627.637H624.174L620.711 456.144L619.557 464.173L612.631 467.614V472.203L610.322 473.35L612.631 468.761L606.859 472.203H609.168L610.322 475.644L606.859 479.085V484.82L604.55 485.967L606.859 488.261L609.168 485.967L610.322 487.114L606.859 490.555V488.261H602.241L601.087 489.408L603.396 491.702H599.933H597.624L598.778 497.438L596.47 496.291V498.585L593.007 502.026L587.235 500.879V506.614L578 515.79H571.074L566.456 524.967L557.221 527.261L553.758 526.114V528.408L549.141 526.114L544.523 530.702L542.215 528.408L543.369 527.261H541.06L539.906 531.849L537.597 529.555L531.825 531.849L529.517 527.261L527.208 536.437L522.59 539.878L521.436 536.437L520.282 539.878L516.819 538.731L512.201 542.172L508.738 541.025L506.43 542.172L507.584 543.319L490.268 546.761L489.114 549.055L483.342 551.349L487.96 559.378L483.342 562.819H481.034L476.416 555.937L478.725 545.614L475.262 544.466L469.49 546.761L468.336 543.319L462.564 542.172L456.792 545.614V543.319H446.403L441.785 541.025V538.731H438.322L437.168 532.996H434.859L439.477 526.114H431.396L430.242 523.82L426.779 524.967L422.161 522.673L418.698 518.084L417.544 520.379L411.772 522.673L412.926 523.82L410.617 526.114H403.691L401.383 529.555L396.765 527.261L395.611 528.408L393.302 526.114L388.685 531.849L382.913 527.261L378.295 531.849L372.524 530.702L370.215 534.143V538.731L373.678 543.319V547.908L371.369 550.202L369.06 547.908L365.597 549.055V544.466L363.289 542.172L364.443 541.025L357.517 545.614H352.899L347.128 536.437H337.893L340.201 532.996L339.047 531.849L341.356 530.702V524.967H343.665L340.201 521.526L336.738 522.673L334.43 520.379L335.584 519.231L332.121 512.349L334.43 507.761H325.195L318.269 512.349L317.114 510.055L319.423 507.761L317.114 498.585L319.423 497.438L320.577 491.702H322.886L325.195 487.114H327.503L328.658 483.673L332.121 482.526L330.967 479.085L333.275 473.35L332.121 457.291L330.967 458.438L329.812 456.144L327.503 458.438L325.195 454.997V450.409L318.269 443.526L315.96 444.673L317.114 446.967H314.805V451.556L311.342 454.997L303.262 449.262L294.027 446.967L287.101 452.703L274.403 457.291L267.477 465.32L260.55 467.614L251.316 466.467L245.544 468.761V461.879L238.618 457.291L239.772 454.997L235.154 450.409L231.691 453.85L228.228 450.409L225.92 451.556L218.993 448.115H214.376L207.45 454.997V460.732L205.141 463.026L201.678 459.585L202.832 451.556L200.524 449.262L198.215 451.556H193.597V453.85H179.745L173.973 450.409L170.51 452.703L165.893 450.409L167.047 452.703H164.738L161.275 445.82L160.121 448.115L154.349 446.967V442.379L153.195 441.232L149.732 443.526L145.114 438.938H142.806L140.497 432.056L133.571 434.35L128.953 427.468L123.181 426.321L119.718 421.733H117.41L113.947 418.291V415.997L112.792 417.144L105.866 414.85L102.403 421.733L95.4767 414.85L90.8593 412.556L88.5506 413.703L80.47 405.674L75.8526 406.821L70.0808 401.086V391.909L65.4633 388.468L66.6177 381.586L70.0808 380.439V382.733L73.5438 386.174L77.0069 381.586L74.6982 373.557L68.9264 365.527V359.792L73.5438 355.204L70.0808 351.763H65.4633L63.1546 349.469L60.8459 341.439L62.0002 336.851L45.8392 334.557L41.2217 332.263L42.3761 329.969L36.6043 331.116L33.1412 325.381L34.2956 319.645L30.8325 316.204L26.215 315.057V312.763H19.2888V310.469L15.8258 311.616L13.517 309.322L22.7519 307.028V304.734L19.2888 301.293V288.675L12.3627 284.087L7.74523 286.381L5.4365 285.234V279.499L1.97342 274.911V272.616L6.59087 269.175V261.146L13.517 259.999L18.1345 255.411L19.2888 256.558V253.117L22.7519 254.264L28.5237 250.823L30.8325 256.558L37.7586 254.264L38.913 256.558L45.8392 243.94H58.5371L57.3828 242.793L60.8459 241.646L62.0002 238.205L67.772 235.911L68.9264 237.058V234.764L83.9331 229.029L88.5506 225.588V223.293H90.8593L88.5506 216.411L89.7049 212.97L94.3224 211.823L92.0136 209.529L96.6311 207.235V200.353L92.0136 190.029V180.853L88.5506 176.265L86.2418 177.412L87.3962 172.823H92.0136L93.168 170.529H100.094L102.403 168.235L103.557 169.382L110.483 165.941L112.792 169.382L116.255 168.235L119.718 170.529L120.873 167.088L116.255 163.647V161.353L126.644 132.677L127.799 131.53L137.034 136.118H148.577L152.04 138.412L155.504 134.971H157.812L161.275 131.53L158.967 114.324L162.43 108.589L172.819 106.295L176.282 100.56L175.128 95.9713L177.436 93.6772L190.134 94.8243L187.826 99.4125L192.443 102.854L191.289 105.148L195.906 107.442L201.678 114.324L206.295 116.618L212.067 115.471L215.53 120.059L217.839 118.912L220.148 122.353H222.457L224.765 131.53L231.691 140.706V146.441L229.383 148.735L231.691 153.324L227.074 160.206L229.383 169.382L236.309 171.676L264.014 173.97L280.175 185.441L288.255 186.588V191.176H290.564L295.181 204.941L302.107 214.117L312.497 212.97L342.51 217.558L359.826 215.264L370.215 217.558L375.987 223.293L385.221 224.441L400.228 231.323L408.309 229.029V233.617L415.235 234.764L417.544 231.323L438.322 222.146L445.248 220.999L447.557 218.705L470.644 219.852L482.188 216.411L489.114 210.676L494.886 202.647L506.43 196.911L505.275 192.323L500.658 188.882L499.503 185.441L500.658 179.706L506.43 171.676H512.201L514.51 175.118L528.362 178.559L538.752 170.529L539.906 165.941H551.45L561.839 160.206L566.456 149.883L569.919 147.588H575.691L579.154 143L581.463 145.294L589.543 140.706L596.47 141.853V139.559L599.933 143L601.087 141.853L608.013 144.147L611.476 140.706L609.168 132.677L605.705 131.53L599.933 123.5L595.315 121.206L593.007 116.618L583.772 115.471L578 123.5L571.074 118.912H562.993L558.376 122.353L553.758 117.765L552.604 113.177L557.221 110.883V106.295L560.684 100.56L559.53 99.4125L568.765 79.9127L582.617 86.7949L594.161 77.6186L599.933 76.4715L603.396 73.0304L601.087 68.4422L611.476 48.9424L610.322 47.7954L612.631 42.0601L621.866 35.1779V30.5897L619.557 28.2956L620.711 23.7074L618.403 21.4133L612.631 22.5603V17.9722L623.02 7.64875L632.255 6.5017L640.335 3.06056L647.262 4.20761L658.805 1.91351L668.04 5.35465L670.349 8.79579L674.966 11.0899L678.429 8.79579L684.201 11.0899L687.664 14.531L686.51 15.6781H688.819L692.282 19.1192L689.973 21.4133L694.59 24.8544V28.2956H696.899L694.59 30.5897L698.054 31.7367L696.899 36.3249L702.671 47.7954L701.517 51.2365L703.825 48.9424L702.671 53.5306L707.288 60.4129L708.443 70.7363L711.906 71.8833L710.752 79.9127L715.369 85.6479L726.913 84.5009V86.7949L730.376 89.089L736.147 87.942L744.228 97.1184L752.309 99.4125L750 104.001L751.154 107.442H753.463L754.617 110.883L752.309 114.324L756.926 122.353H776.55L778.859 118.912L777.704 117.765H780.013L784.631 113.177L788.094 114.324L798.483 108.589L810.027 107.442L805.409 110.883L803.1 115.471L805.409 121.206L804.255 125.795L799.637 126.942L797.329 131.53L798.483 132.677L793.866 145.294L795.02 148.735L789.248 156.765V161.353L784.631 164.794L783.476 171.676L782.322 172.823L774.241 170.529L768.47 167.088L766.161 168.235L767.315 169.382H765.007L762.698 173.97H758.08L755.772 176.265L758.08 178.559L760.389 191.176V202.647L758.08 210.676L748.845 214.117L751.154 218.705L750 216.411L748.845 217.558L746.537 215.264V211.823L741.919 209.529L739.611 219.852H733.839L729.221 226.735H717.678L718.832 232.47L721.141 234.764L718.832 238.205H711.906L706.134 234.764L704.98 235.911V231.323H700.362L693.436 242.793L688.819 247.381L687.664 246.234L683.047 250.823L677.275 253.117L678.429 254.264L673.812 255.411L665.731 265.734H655.342L643.799 271.469L639.181 274.911L640.335 276.058L638.027 278.352H635.718L636.872 279.499L633.409 278.352L634.564 280.646L627.637 282.94L626.483 279.499L632.255 277.205L634.564 272.616L631.101 273.764L627.637 269.175L631.101 268.028V265.734L638.027 259.999L636.872 257.705H639.181L641.49 253.117L635.718 247.381L629.946 246.234L624.174 248.528L625.329 249.676Z" fill="#D9D9D9" fill-opacity="0.01"/>
  </g>
  <path d="M605.705 348.322L601.087 347.174V344.88L616.094 327.675H613.785L614.94 324.234L617.248 327.675L620.711 326.528V321.939L625.329 319.645L623.02 318.498L628.792 317.351L631.101 315.057L632.255 316.204L638.027 312.763L642.644 315.057L646.107 311.616H643.799L647.262 304.734H641.49L639.181 302.44L632.255 304.734L629.946 301.293L626.483 302.44L625.329 298.999L621.866 297.852L614.94 300.146V302.44L611.476 305.881H609.168L610.322 307.028L608.013 309.322L603.396 310.469L602.242 308.175L598.778 307.028L597.624 303.587L599.933 300.146H602.242L599.933 298.999L598.778 294.41H593.007L583.772 290.969L584.926 288.675L583.772 289.822L580.309 285.234L582.617 280.646L583.772 281.793V277.205L586.08 274.911L591.852 280.646L594.161 276.058L597.624 277.205L603.396 271.469V265.734L605.705 263.44L618.403 258.852L623.02 249.676H625.329L624.174 248.528L629.946 246.234L635.718 247.381L641.49 253.117L639.181 257.705H636.872L638.027 259.999L631.101 265.734V268.028L627.638 269.175L631.101 273.764L634.564 272.616L632.255 277.205L626.483 279.499L627.638 282.94L634.564 280.646L633.409 278.352L636.872 279.499L635.718 278.352H638.027L640.336 276.058L639.181 274.911L643.799 271.469L655.342 265.734H665.731L673.812 255.411L678.429 254.264L677.275 253.117L683.047 250.823L687.664 246.234L688.819 247.381L693.436 242.793L700.362 231.323H704.98V235.911L706.134 234.764L711.906 238.205H718.832L721.141 234.764L718.832 232.47L717.678 226.735H729.221L733.839 219.852H739.611L741.919 209.529L746.537 211.823V215.264L748.846 217.558L750 216.411L751.154 218.705L748.846 214.117L758.08 210.676L760.389 202.647V191.176L758.08 178.559L755.772 176.265L758.08 173.97H762.698L765.007 169.382H767.315L766.161 168.235L768.47 167.088L774.241 170.529L782.322 172.823L783.476 171.676L784.631 164.794L789.248 161.353V156.765L795.02 148.735L793.866 145.294L798.483 132.677L797.329 131.53L799.637 126.942L804.255 125.795L805.409 121.206L803.1 115.471L805.409 110.883L810.027 107.442L798.483 108.589L788.094 114.324L784.631 113.177L780.013 117.765H777.705L778.859 118.912L776.55 122.353H756.926L752.309 114.324L754.617 110.883L753.463 107.442H751.154L750 104.001L752.309 99.4125L744.228 97.1184L736.148 87.942L730.376 89.089L726.913 86.7949V84.5009L715.369 85.6479L710.752 79.9127L711.906 71.8833L708.443 70.7363L707.288 60.4129L702.671 53.5306L703.825 48.9424L701.517 51.2365L702.671 47.7954L696.899 36.3249L698.054 31.7367L694.591 30.5897L696.899 28.2956H694.591V24.8544L689.973 21.4133L692.282 19.1192L688.819 15.6781H686.51L687.664 14.531L684.201 11.0899L678.429 8.79579L674.966 11.0899L670.349 8.79579L668.04 5.35465L658.805 1.91351L647.262 4.20761L640.336 3.06056L632.255 6.5017L623.02 7.64875L612.631 17.9722V22.5603L618.403 21.4133L620.711 23.7074L619.557 28.2956L621.866 30.5897V35.1779L612.631 42.0601L610.322 47.7954L611.476 48.9424L601.087 68.4422L603.396 73.0304L599.933 76.4715L594.161 77.6186L582.617 86.7949L568.765 79.9127L559.53 99.4125L560.685 100.56L557.221 106.295V110.883L552.604 113.177L553.758 117.765L558.376 122.353L562.993 118.912H571.074L578 123.5L583.772 115.471L593.007 116.618L595.315 121.206L599.933 123.5L605.705 131.53L609.168 132.677L611.476 140.706L608.013 144.147L601.087 141.853L599.933 143L596.47 139.559V141.853L589.544 140.706L581.463 145.294L579.154 143L575.691 147.588H569.919L566.456 149.883L561.839 160.206L551.45 165.941H539.906L538.752 170.529L528.362 178.559L514.51 175.118L512.201 171.676H506.43L500.658 179.706L499.503 185.441L500.658 188.882L505.275 192.323L506.43 196.911L494.886 202.647L489.114 210.676L482.188 216.411L470.644 219.852L447.557 218.705L445.248 220.999L438.322 222.146L417.544 231.323L415.235 234.764L408.309 233.617V229.029L400.228 231.323L385.222 224.441L375.987 223.293L370.215 217.558L359.826 215.264L342.51 217.558L312.497 212.97L302.107 214.117L295.181 204.941L290.564 191.176H288.255V186.588L280.175 185.441L264.014 173.97L236.309 171.676L229.383 169.382L227.074 160.206L231.691 153.324L229.383 148.735L231.691 146.441V140.706L224.765 131.53L222.457 122.353H220.148L217.839 118.912L215.53 120.059L212.067 115.471L206.295 116.618L201.678 114.324L195.906 107.442L191.289 105.148L192.443 102.854L187.826 99.4125L190.134 94.8243L177.436 93.6772L175.128 95.9713L176.282 100.56L172.819 106.295L162.43 108.589L158.967 114.324L161.275 131.53L157.812 134.971H155.504L152.04 138.412L148.577 136.118H137.034L127.799 131.53L126.644 132.677L116.255 161.353V163.647L120.873 167.088L119.718 170.529L116.255 168.235L112.792 169.382L110.483 165.941L103.557 169.382L102.403 168.235L100.094 170.529H93.168L92.0136 172.823H87.3962L86.2418 177.412L88.5506 176.265L92.0136 180.853V190.029L96.6311 200.353V207.235L92.0136 209.529L94.3224 211.823L89.7049 212.97L88.5506 216.411L90.8593 223.293H88.5506V225.588L83.9331 229.029L68.9264 234.764V237.058L67.772 235.911L62.0002 238.205L60.8459 241.646L57.3828 242.793L58.5371 243.94H45.8392L38.913 256.558L37.7586 254.264L30.8325 256.558L28.5237 250.823L22.7519 254.264L19.2888 253.117V256.558L18.1345 255.411L13.517 259.999L6.59087 261.146V269.175L1.97342 272.616V274.911L5.4365 279.499V285.234L7.74523 286.381L12.3627 284.087L19.2888 288.675V301.293L22.7519 304.734V307.028L13.517 309.322L15.8258 311.616L19.2888 310.469V312.763H26.215V315.057L30.8325 316.204L34.2956 319.645L33.1412 325.381L36.6043 331.116L42.3761 329.969L41.2217 332.263L45.8392 334.557L62.0002 336.851L60.8459 341.439L63.1546 349.469L65.4633 351.763H70.0808L73.5438 355.204L68.9264 359.792V365.527L74.6982 373.557L77.0069 381.586L73.5438 386.174L70.0808 382.733V380.439L66.6177 381.586L65.4633 388.468L70.0808 391.909V401.086L75.8526 406.821L80.47 405.674L88.5506 413.703L90.8593 412.556L95.4767 414.85L102.403 421.733L105.866 414.85L112.792 417.144L113.947 415.997V418.291L117.41 421.733H119.718L123.181 426.321L128.953 427.468L133.571 434.35L140.497 432.056L142.806 438.938H145.114L149.732 443.526L153.195 441.232L154.349 442.379V446.967L160.121 448.115L161.275 445.82L164.738 452.703H167.047L165.893 450.409L170.51 452.703L173.973 450.409L179.745 453.85H193.597V451.556H198.215L200.524 449.262L202.832 451.556L201.678 459.585L205.141 463.026L207.45 460.732V454.997L214.376 448.115H218.993L225.92 451.556L228.228 450.409L231.691 453.85L235.154 450.409L239.772 454.997L238.618 457.291L245.544 461.879V468.761L251.316 466.467L260.55 467.614L267.477 465.32L274.403 457.291L287.101 452.703L294.027 446.967L303.262 449.262L311.342 454.997L314.805 451.556V446.967H317.114L315.96 444.673L318.269 443.526L325.195 450.409V454.997L327.503 458.438L329.812 456.144L330.967 458.438L332.121 457.291L333.275 473.35L330.967 479.085L332.121 482.526L328.658 483.673L327.503 487.114H325.195L322.886 491.702H320.577L319.423 497.438L317.114 498.585L319.423 507.761L317.114 510.055L318.269 512.349L325.195 507.761H334.43L332.121 512.349L335.584 519.231L334.43 520.379L336.738 522.673L340.201 521.526L343.665 524.967H341.356V530.702L339.047 531.849L340.201 532.996L337.893 536.437H347.128L352.899 545.614H357.517L364.443 541.025L363.289 542.172L365.597 544.466V549.055L369.06 547.908L371.369 550.202L373.678 547.908V543.319L370.215 538.731V534.143L372.524 530.702L378.295 531.849L382.913 527.261L388.685 531.849L393.302 526.114L395.611 528.408L396.765 527.261L401.383 529.555L403.691 526.114H410.617L412.926 523.82L411.772 522.673L417.544 520.379L418.698 518.084L422.161 522.673L426.779 524.967L430.242 523.82L431.396 526.114H439.477L434.859 532.996H437.168L438.322 538.731H441.785V541.025L446.403 543.319H456.792V545.614L462.564 542.172L468.336 543.319L469.49 546.761L475.262 544.466L478.725 545.614L476.416 555.937L481.034 562.819H483.342L487.96 559.378L483.342 551.349L489.114 549.055L490.268 546.761L507.584 543.319L506.43 542.172L508.738 541.025L512.201 542.172L516.819 538.731L520.282 539.878L521.436 536.437L522.591 539.878L527.208 536.437L529.517 527.261L531.825 531.849L537.597 529.555L539.906 531.849L541.06 527.261H543.369L542.215 528.408L544.523 530.702L549.141 526.114L553.758 528.408V526.114L557.221 527.261L566.456 524.967L571.074 515.79H578L587.235 506.614V500.879L593.007 502.026L596.47 498.585V496.291L598.778 497.438L597.624 491.702H599.933M605.705 348.322H603.396M605.705 348.322V350.616L616.094 355.204L620.711 368.968L623.02 371.262L624.174 380.439L631.101 385.027V387.321L638.027 395.35L636.872 399.939L631.101 397.645L629.946 398.792L635.718 403.38L638.027 406.821V411.409L640.336 412.556L633.409 409.115L626.483 412.556L627.638 415.997L634.564 421.733L640.336 422.88L635.718 426.321L638.027 428.615V435.497H633.409L635.718 438.938H633.409L634.564 440.085L632.255 442.379L634.564 445.82L632.255 448.115L631.101 446.967L627.638 451.556L626.483 449.262L625.329 450.409V452.703H627.638H624.174L620.711 456.144L619.557 464.173L612.631 467.614V472.203L610.322 473.35L612.631 468.761L606.859 472.203H609.168L610.322 475.644L606.859 479.085V484.82L604.55 485.967L606.859 488.261M606.859 488.261L609.168 485.967L610.322 487.114L606.859 490.555V488.261ZM606.859 488.261H602.242L601.087 489.408L603.396 491.702H599.933M599.933 491.702V495.143" stroke="#65F2EA" stroke-width="2" stroke-linecap="round" stroke-linejoin="round"/>
  <defs>
    <filter id="filter0_ii_244_38523" x="0.973419" y="-15.0865" width="810.053" height="582.906" filterUnits="userSpaceOnUse" color-interpolation-filters="sRGB">
      <feFlood flood-opacity="0" result="BackgroundImageFix"/>
      <feBlend mode="normal" in="SourceGraphic" in2="BackgroundImageFix" result="shape"/>
      <feColorMatrix in="SourceAlpha" type="matrix" values="0 0 0 0 0 0 0 0 0 0 0 0 0 0 0 0 0 0 127 0" result="hardAlpha"/>
      <feOffset dy="8"/>
      <feGaussianBlur stdDeviation="2"/>
      <feComposite in2="hardAlpha" operator="arithmetic" k2="-1" k3="1"/>
      <feColorMatrix type="matrix" values="0 0 0 0 0.0275 0 0 0 0 0.17413 0 0 0 0 0.55 0 0 0 0.6 0"/>
      <feBlend mode="normal" in2="shape" result="effect1_innerShadow_244_38523"/>
      <feColorMatrix in="SourceAlpha" type="matrix" values="0 0 0 0 0 0 0 0 0 0 0 0 0 0 0 0 0 0 127 0" result="hardAlpha"/>
      <feOffset dy="-16"/>
      <feGaussianBlur stdDeviation="20"/>
      <feComposite in2="hardAlpha" operator="arithmetic" k2="-1" k3="1"/>
      <feColorMatrix type="matrix" values="0 0 0 0 0.00833333 0 0 0 0 0.286 0 0 0 0 1 0 0 0 0.6 0"/>
      <feBlend mode="normal" in2="effect1_innerShadow_244_38523" result="effect2_innerShadow_244_38523"/>
    </filter>
  </defs>
</svg>