<svg width="24" height="24" viewBox="0 0 24 24" fill="none" xmlns="http://www.w3.org/2000/svg">
<path fill-rule="evenodd" clip-rule="evenodd" d="M12 4C8.68629 4 6 6.68629 6 10V18C6 18.5523 5.55228 19 5 19C4.44772 19 4 18.5523 4 18V10C4 5.58172 7.58172 2 12 2C16.4183 2 20 5.58172 20 10V18C20 18.5523 19.5523 19 19 19C18.4477 19 18 18.5523 18 18V10C18 6.68629 15.3137 4 12 4Z" fill="white"/>
<path fill-rule="evenodd" clip-rule="evenodd" d="M2 18C2 17.4477 2.44772 17 3 17H21C21.5523 17 22 17.4477 22 18C22 18.5523 21.5523 19 21 19H3C2.44772 19 2 18.5523 2 18Z" fill="white"/>
<path fill-rule="evenodd" clip-rule="evenodd" d="M9 22C9 21.4477 9.44772 21 10 21H14C14.5523 21 15 21.4477 15 22C15 22.5523 14.5523 23 14 23H10C9.44772 23 9 22.5523 9 22Z" fill="white"/>
</svg>
