<svg width="32" height="32" viewBox="0 0 32 32" fill="none" xmlns="http://www.w3.org/2000/svg">
  <path
    d="M0.5 4C0.5 2.067 2.067 0.5 4 0.5H28C29.933 0.5 31.5 2.067 31.5 4V28C31.5 29.933 29.933 31.5 28 31.5H4C2.067 31.5 0.5 29.933 0.5 28V4Z"
    fill="#202020" />
  <path
    d="M0.5 4C0.5 2.067 2.067 0.5 4 0.5H28C29.933 0.5 31.5 2.067 31.5 4V28C31.5 29.933 29.933 31.5 28 31.5H4C2.067 31.5 0.5 29.933 0.5 28V4Z"
    stroke="#3B3C3F" />
  <path fill-rule="evenodd" clip-rule="evenodd"
    d="M7.66671 23.015C9.7055 20.5263 11.516 19.1141 13.0982 18.7784C14.6804 18.4427 16.1868 18.392 17.6175 18.6262V23.0833L24.3334 15.8105L17.6175 8.91666V13.1529C14.9722 13.1738 12.7235 14.1228 10.8711 16C9.01866 17.8772 7.95058 20.2155 7.66671 23.015Z"
    stroke="#D2D3D6" stroke-width="1.33333" stroke-linejoin="round" />
</svg>