<svg width="32" height="32" viewBox="0 0 32 32" fill="none" xmlns="http://www.w3.org/2000/svg">
  <path
    d="M0.5 4C0.5 2.067 2.067 0.5 4 0.5H28C29.933 0.5 31.5 2.067 31.5 4V28C31.5 29.933 29.933 31.5 28 31.5H4C2.067 31.5 0.5 29.933 0.5 28V4Z"
    fill="#202020" />
  <path
    d="M0.5 4C0.5 2.067 2.067 0.5 4 0.5H28C29.933 0.5 31.5 2.067 31.5 4V28C31.5 29.933 29.933 31.5 28 31.5H4C2.067 31.5 0.5 29.933 0.5 28V4Z"
    stroke="#3B3C3F" />
  <path
    d="M12.8 8H8.8C8.35817 8 8 8.4477 8 9V23C8 23.5523 8.35817 24 8.8 24H23.2C23.6418 24 24 23.5523 24 23V20"
    stroke="#D2D3D6" stroke-width="1.33333" stroke-linecap="round" stroke-linejoin="round" />
  <path
    d="M23.2 16H16.8C16.3582 16 16 15.5523 16 15V9C16 8.4477 16.3582 8 16.8 8H23.2C23.6418 8 24 8.4477 24 9V15C24 15.5523 23.6418 16 23.2 16Z"
    stroke="#D2D3D6" stroke-width="1.33333" stroke-linejoin="round" />
</svg>